<?xml version="1.0" encoding="UTF-8" standalone="no"?>
<svg
   xmlns:dc="http://purl.org/dc/elements/1.1/"
   xmlns:cc="http://creativecommons.org/ns#"
   xmlns:rdf="http://www.w3.org/1999/02/22-rdf-syntax-ns#"
   xmlns:svg="http://www.w3.org/2000/svg"
   xmlns="http://www.w3.org/2000/svg"
   xmlns:sodipodi="http://sodipodi.sourceforge.net/DTD/sodipodi-0.dtd"
   xmlns:inkscape="http://www.inkscape.org/namespaces/inkscape"
   inkscape:version="1.0 (4035a4fb49, 2020-05-01)"
   sodipodi:docname="the new paper (sg) (2021-01-21).svg"
   id="svg14687"
   version="1.2"
   viewBox="0 0 300 52.37751"
   height="52.37751pt"
   width="300pt">
  <metadata
     id="metadata14691">
    <rdf:RDF>
      <cc:Work
         rdf:about="">
        <dc:format>image/svg+xml</dc:format>
        <dc:type
           rdf:resource="http://purl.org/dc/dcmitype/StillImage" />
        <dc:title></dc:title>
      </cc:Work>
    </rdf:RDF>
  </metadata>
  <sodipodi:namedview
     inkscape:current-layer="svg14687"
     inkscape:window-maximized="1"
     inkscape:window-y="-8"
     inkscape:window-x="-8"
     inkscape:cy="174.5788"
     inkscape:cx="476.6108"
     inkscape:zoom="1.2614228"
     fit-margin-bottom="0"
     fit-margin-right="0"
     fit-margin-left="0"
     fit-margin-top="0"
     showgrid="false"
     id="namedview14689"
     inkscape:window-height="837"
     inkscape:window-width="1600"
     inkscape:pageshadow="2"
     inkscape:pageopacity="0"
     guidetolerance="10"
     gridtolerance="10"
     objecttolerance="10"
     borderopacity="1"
     bordercolor="#666666"
     pagecolor="#ffffff" />
  <defs
     id="defs1282" />
  <path
     id="path12440"
     d="M 3.356189,35.41269 V 16.41491 L 0,15.04528 V 13.45053 H 3.081233 C 5.177777,11.91249 7.703941,9.22307 8.862196,5.43898 h 2.08967 v 8.01155 h 5.559278 v 2.69286 h -5.559278 v 17.3532 c 0,1.64286 0.278393,2.74097 2.311354,2.74097 1.873141,0 2.971252,-0.33167 4.017802,-0.49492 v 1.70301 c -1.981403,1.25964 -4.78768,2.90251 -8.362117,2.90251 -3.361344,0 -5.562716,-2.29932 -5.562716,-4.93547"
     style="clip-rule:nonzero;fill:#687d82;fill-opacity:1;fill-rule:nonzero;stroke:none;stroke-width:0.439931" />
  <path
     style="fill:#687d82;fill-opacity:1;fill-rule:nonzero;stroke:none;stroke-width:0.439931"
     d="m 17.334298,38.37535 2.919692,-1.4229 V 2.85611 L 16.731109,1.37134 V 0 h 11.11512 v 17.73814 c 2.14982,-3.12935 4.89595,-5.05577 8.47382,-5.05577 5.01281,0 8.20058,2.90939 8.20058,6.48382 v 17.78626 l 2.80799,1.4229 v 1.37306 h -13.42475 v -1.37306 l 3.02108,-1.4229 V 20.15432 c 0,-2.03468 -1.15481,-3.1895 -3.40774,-3.1895 -2.69629,0 -4.68113,1.86971 -5.67098,3.35103 v 16.6366 l 3.08295,1.4229 v 1.37306 H 17.334298 Z m 0,0"
     id="path12444" />
  <path
     style="fill:#687d82;fill-opacity:1;fill-rule:nonzero;stroke:none;stroke-width:0.439931"
     d="m 62.576689,23.22868 c 0,-0.93658 -0.11342,-3.35276 -0.33167,-4.61412 -0.33338,-2.19965 -1.43493,-3.95766 -3.74284,-3.95766 -2.08968,0 -3.36135,1.75801 -3.85112,4.00921 -0.33166,1.37651 -0.49836,3.62599 -0.49836,5.05405 z m -16.29118,2.90766 c 0,-8.07341 5.00593,-13.50724 12.81985,-13.50724 6.98905,0 11.17011,4.49898 11.17011,11.58255 v 1.75628 l -16.17432,-0.38322 v 1.53976 c 0,2.24777 0.3815,4.49726 0.82315,5.70535 0.93314,2.74612 3.02281,4.28588 6.04905,4.28588 2.92141,0 5.39602,-1.10326 8.14902,-4.11747 h 0.93485 v 2.18934 c -2.25808,3.0228 -5.66754,5.27573 -10.45694,5.27573 -8.13871,0 -13.31477,-4.45086 -13.31477,-14.32696"
     id="path12446" />
  <path
     style="fill:#f57a35;fill-opacity:1;fill-rule:nonzero;stroke:none;stroke-width:0.439931"
     d="m 69.675729,38.37535 2.91282,-1.4229 V 16.30493 l -3.02281,-1.42634 v -1.42806 h 10.61676 v 4.28761 c 2.14982,-3.12935 4.84611,-5.05577 8.47382,-5.05577 5.00937,0 8.2023,2.90939 8.2023,6.48382 v 17.78626 l 2.80628,1.4229 v 1.37306 h -13.48491 v -1.37306 l 3.08467,-1.4229 V 20.15432 c 0,-2.09139 -1.21496,-3.1895 -3.46789,-3.1895 -2.69629,0 -4.62442,1.86971 -5.61427,3.35103 v 16.6366 l 3.08295,1.4229 v 1.37306 h -13.58972 z m 0,0"
     id="path12448" />
  <path
     style="fill:#f57a35;fill-opacity:1;fill-rule:nonzero;stroke:none;stroke-width:0.439931"
     d="m 115.02123,23.22868 c 0,-0.93658 -0.10999,-3.35276 -0.32995,-4.61412 -0.33167,-2.19965 -1.4315,-3.95766 -3.74113,-3.95766 -2.09483,0 -3.35963,1.75801 -3.85455,4.00921 -0.33167,1.37651 -0.49836,3.62599 -0.49836,5.05405 z m -16.291181,2.90766 c 0,-8.07341 5.007641,-13.50724 12.825001,-13.50724 6.98734,0 11.16668,4.49898 11.16668,11.58255 v 1.75628 l -16.17776,-0.38322 v 1.53976 c 0,2.24777 0.38838,4.49726 0.82487,5.70535 0.94,2.74612 3.02796,4.28588 6.05076,4.28588 2.9197,0 5.39603,-1.10326 8.14731,-4.11747 h 0.93485 v 2.18934 c -2.25292,3.0228 -5.66926,5.27573 -10.45522,5.27573 -8.14216,0 -13.316491,-4.45086 -13.316491,-14.32696"
     id="path12450" />
  <path
     style="fill:#f57a35;fill-opacity:1;fill-rule:nonzero;stroke:none;stroke-width:0.439931"
     d="m 124.5416,16.19494 -3.35791,-1.31635 v -1.42806 h 13.9214 v 1.42806 l -2.58288,1.31635 4.56772,15.3168 3.96281,-12.79064 -0.94001,-2.46945 -2.69801,-1.37306 v -1.42806 h 13.53818 v 1.42806 l -3.02109,1.37306 4.50757,14.98857 4.73785,-14.82531 -3.0314,-1.53632 -0.10998,-1.42806 h 9.02201 v 1.42806 l -3.29776,1.58959 -7.59568,23.39193 h -4.7894 l -5.1709,-17.79141 -5.44586,17.79141 h -4.7894 z m 0,0"
     id="path12452" />
  <path
     style="fill:#687d82;fill-opacity:1;fill-rule:nonzero;stroke:none;stroke-width:0.439931"
     d="m 183.25171,33.60141 c 0.66505,-1.92126 0.89017,-4.45086 0.89017,-6.80689 0,-2.63787 -0.22512,-5.32901 -0.77675,-7.25026 -0.76988,-2.52101 -2.36635,-3.23762 -4.12607,-3.23762 -2.15154,0 -3.67754,1.59475 -4.56944,2.85955 v 15.04528 c 0.94173,1.36447 2.26152,2.62412 4.51617,2.62412 1.81299,0 3.29776,-1.03796 4.06592,-3.23418 m -19.58722,17.34977 3.41977,-1.37822 V 16.30664 l -3.03312,-1.42805 v -1.42806 h 10.61848 v 3.13279 c 1.70473,-2.30448 3.90267,-3.90095 7.04405,-3.90095 6.87907,0 10.67863,5.87376 10.67863,14.05372 0,7.74175 -4.29792,13.72721 -11.17699,13.72721 -3.13451,0 -5.11419,-1.48992 -6.54569,-3.73254 v 12.8422 l 3.74113,1.37822 v 1.42633 h -14.74626 z m 0,0"
     id="path12454" />
  <path
     style="fill:#687d82;fill-opacity:1;fill-rule:nonzero;stroke:none;stroke-width:0.439931"
     d="m 208.57177,34.31458 v -8.62333 c -5.11935,0.22169 -7.76237,1.86799 -7.76237,6.64365 0,3.29776 1.09983,4.50069 3.5796,4.44742 2.0364,-0.0567 3.46789,-1.42118 4.18277,-2.46774 m -15.633,-0.93657 c 0,-7.46507 7.64895,-9.6063 15.633,-9.6063 v -4.44742 c 0,-2.08967 -1.26823,-4.55397 -4.56771,-4.55397 -2.2598,0.44165 -4.50757,1.75972 -5.94079,3.78581 l -1.5449,3.73597 h -1.53805 v -7.25197 c 1.48305,-0.81972 5.66583,-2.46602 9.7369,-2.46602 8.26417,0 11.45195,2.96781 11.45195,6.47694 v 17.9014 l 2.74956,1.4229 v 1.37306 H 208.68004 V 36.5108 c -1.97969,2.6877 -4.72925,3.9525 -7.87064,3.9525 -4.40274,0 -7.87063,-1.75801 -7.87063,-7.08529"
     id="path12456" />
  <path
     style="fill:#687d82;fill-opacity:1;fill-rule:nonzero;stroke:none;stroke-width:0.439931"
     d="m 236.46612,33.60141 c 0.66334,-1.92126 0.8833,-4.45086 0.8833,-6.80689 0,-2.63787 -0.21996,-5.32901 -0.76988,-7.25026 -0.7716,-2.52101 -2.36806,-3.23762 -4.12779,-3.23762 -2.14466,0 -3.68613,1.59475 -4.56428,2.85955 v 15.04528 c 0.93658,1.36447 2.24949,2.62412 4.51273,2.62412 1.81128,0 3.30463,-1.03796 4.06592,-3.23418 m -19.58722,17.34977 3.40946,-1.37822 V 16.30664 l -3.02452,-1.42805 v -1.42806 h 10.62363 v 3.13279 c 1.70302,-2.30448 3.90439,-3.90095 7.04405,-3.90095 6.87735,0 10.67691,5.87376 10.67691,14.05372 0,7.74175 -4.29448,13.72721 -11.17355,13.72721 -3.13966,0 -5.11935,-1.48992 -6.54741,-3.73254 v 12.8422 l 3.74285,1.37822 v 1.42633 H 216.8789 Z m 0,0"
     id="path12458" />
  <path
     style="fill:#687d82;fill-opacity:1;fill-rule:nonzero;stroke:none;stroke-width:0.439931"
     d="m 263.21596,23.22868 c 0,-0.93658 -0.10654,-3.35276 -0.33167,-4.61412 -0.33166,-2.19965 -1.42805,-3.95766 -3.74112,-3.95766 -2.09483,0 -3.35619,1.75801 -3.84768,4.00921 -0.3351,1.37651 -0.50179,3.62599 -0.50179,5.05405 z m -16.28602,2.90766 c 0,-8.07341 5.00593,-13.50724 12.8147,-13.50724 6.99077,0 11.17354,4.49898 11.17354,11.58255 v 1.75628 l -16.17947,-0.38322 v 1.53976 c 0,2.24777 0.3815,4.49726 0.82487,5.70535 0.93485,2.74612 3.02796,4.28588 6.06107,4.28588 2.91454,0 5.38056,-1.10326 8.13872,-4.11747 h 0.93141 v 2.18934 c -2.24949,3.0228 -5.6727,5.27573 -10.45007,5.27573 -8.14215,0 -13.31477,-4.45086 -13.31477,-14.32696"
     id="path12460" />
  <path
     style="fill:#687d82;fill-opacity:1;fill-rule:nonzero;stroke:none;stroke-width:0.439931"
     d="m 270.75665,38.37535 2.91798,-1.4229 V 16.30493 l -3.03312,-1.42634 v -1.42806 h 10.61848 v 5.16403 c 2.42306,-3.7944 5.01108,-5.81877 8.42227,-5.81877 0.38665,0 1.20981,0 2.03983,0.16326 v 8.78142 h -1.65318 l -1.09123,-2.90594 c -0.50523,-0.16842 -1.38338,-0.44509 -2.3715,-0.44509 -2.31823,0 -4.18965,1.10154 -5.34619,2.4179 v 16.08668 l 3.85455,1.48133 v 1.37306 h -14.35789 z m 0,0"
     id="path12462" />
  <path
     style="fill:#687d82;fill-opacity:1;fill-rule:nonzero;stroke:none;stroke-width:0.439931"
     d="m 300,33.76123 c 0,3.61052 -2.93172,6.53881 -6.55943,6.53881 -3.62428,0 -6.556,-2.92829 -6.556,-6.53881 0,-3.62427 2.93172,-6.55256 6.556,-6.55256 3.62771,0 6.55943,2.92829 6.55943,6.55256"
     id="path12464" />
  <path
     style="fill:#ffffff;fill-opacity:1;fill-rule:nonzero;stroke:none;stroke-width:0.439931"
     d="m 297.86909,28.72781 c -0.40041,0.44852 -0.80081,0.93141 -1.00875,1.45899 -0.17185,0.43133 -0.51726,0.71317 -0.78363,1.0792 -0.28011,0.37119 -0.32994,0.84549 -0.58084,1.23902 -0.1667,0.23716 -0.39869,0.41416 -0.58944,0.6324 -0.25949,0.28871 -0.42618,0.63584 -0.60147,0.97266 -0.46742,0.91767 -0.95719,1.81987 -1.47617,2.70489 -0.10655,0.19419 -0.28011,0.41415 -0.49836,0.37463 -0.17872,-0.0275 -0.27839,-0.21138 -0.35744,-0.36947 -0.37635,-0.78707 -0.7441,-1.57413 -1.11186,-2.36463 -0.0395,-0.0739 -0.0739,-0.14779 -0.0739,-0.232 0,-0.10138 0.0601,-0.19934 0.11342,-0.28526 0.23371,-0.37635 0.46914,-0.73551 0.69942,-1.11702 0.1306,-0.19762 0.32651,-0.42274 0.55163,-0.36947 0.15638,0.0395 0.25433,0.21138 0.2887,0.37807 0.0344,0.16841 0.0172,0.3351 0.055,0.50179 0.10998,0.40557 0.60834,0.66162 1.00874,0.50867 0.31792,-0.13232 0.51898,-0.46742 0.68739,-0.7716 1.0414,-1.88688 2.29933,-3.64489 3.74801,-5.24479 0.15809,-0.16326 0.35228,-0.34198 0.57912,-0.3162 -0.0704,0.41415 -0.39181,0.61177 -0.53272,0.97437 -0.0309,0.0722 -0.17357,0.11171 -0.20451,0.20107 -0.012,0.0653 0.11858,0.0653 0.13405,0.0653 l -0.0464,-0.0206"
     id="path12466" />
</svg>
